<?xml version="1.0" encoding="UTF-8" standalone="no"?>
<svg
   id="Layer_2"
   data-name="Layer 2"
   viewBox="0 0 453.41322 453.17606"
   version="1.1"
   sodipodi:docname="stress_special.svg"
   width="453.41321"
   height="453.17606"
   xmlns:inkscape="http://www.inkscape.org/namespaces/inkscape"
   xmlns:sodipodi="http://sodipodi.sourceforge.net/DTD/sodipodi-0.dtd"
   xmlns="http://www.w3.org/2000/svg"
   xmlns:svg="http://www.w3.org/2000/svg">
  <sodipodi:namedview
     id="namedview1"
     pagecolor="#ffffff"
     bordercolor="#666666"
     borderopacity="1.0"
     inkscape:showpageshadow="2"
     inkscape:pageopacity="0.0"
     inkscape:pagecheckerboard="0"
     inkscape:deskcolor="#d1d1d1" />
  <defs
     id="defs1">
    <style
       id="style1">&#10;      .cls-1 {&#10;        fill: none;&#10;        stroke: #000;&#10;        stroke-miterlimit: 10;&#10;        stroke-width: .75px;&#10;      }&#10;    </style>
  </defs>
  <path
     style="fill:#000000;stroke-width:0.0116439"
     d="M 9.7956506,20.088039 C 8.8641267,18.747613 8.7309994,18.557471 8.7238306,18.557195 8.7156906,18.556881 6.8256257,19.661073 5.8844357,20.215989 5.5674303,20.402892 5.307153,20.555333 5.306042,20.554745 5.301362,20.552245 5.085396,19.329568 4.9881251,18.754851 4.9301361,18.412229 4.8800542,18.120112 4.8768315,18.105703 l -0.00586,-0.0262 H 3.4157528 1.9605338 L 1.9575738,16.709039 1.9546138,15.338575 1.2385133,15.2141 c -1.07504958,-0.18687 -1.5430374,-0.273528 -1.54082578,-0.285312 0.001095,-0.0058 0.18236679,-0.317132 0.40282716,-0.691775 C 1.0907339,12.554269 1.6812274,11.538309 1.6806247,11.518393 1.6804271,11.511861 1.5402635,11.409098 1.3691501,11.290031 1.024967,11.050536 0.01590008,10.350402 -0.25867933,10.160573 L -0.43429036,10.039166 -0.20665891,9.8820818 C -0.0110588,9.7471018 0.39604425,9.4639568 1.4445308,8.7336587 1.5674454,8.6480455 1.6714081,8.5725032 1.675559,8.565787 1.6797098,8.5590707 1.6452568,8.4870408 1.5989967,8.4057206 1.4892995,8.2128844 0.48112716,6.4882166 0.04234779,5.7427808 -0.14613315,5.4225732 -0.30123534,5.155813 -0.30232372,5.1499802 -0.30452291,5.1381946 0.16350951,5.0515302 1.2385155,4.864667 L 1.954616,4.7401907 1.957576,3.3697272 1.960536,1.9992636 h 1.455219 1.4552191 l 0.00583,-0.026199 c 0.00321,-0.014409 0.06341,-0.3667832 0.1337869,-0.783053 0.1366703,-0.80839165 0.2879532,-1.65944013 0.296503,-1.66798993 0.00286,-0.00286 0.3212539,0.1805592 0.7075419,0.40759848 0.8560928,0.5031653 1.3362049,0.7845167 2.1095308,1.23621035 0.5660197,0.3306076 0.5930817,0.3449752 0.6140446,0.326004 0.025233,-0.022836 0.148928,-0.1990981 0.9063683,-1.29155528 0.301935,-0.43548224 0.5538554,-0.79178589 0.5598224,-0.79178589 0.006,0 0.208907,0.28556689 0.45098,0.63459311 0.593509,0.85573491 0.968452,1.39106776 1.004724,1.43451496 l 0.03,0.035934 0.494277,-0.2887209 c 0.907645,-0.53018055 1.97987,-1.1584967 2.448312,-1.43469411 0.254989,-0.15034315 0.466006,-0.27096196 0.468926,-0.26804179 0.0082,0.008204 0.155051,0.83332191 0.290626,1.633001 0.06732,0.3970574 0.127849,0.7494312 0.134518,0.783053 l 0.01213,0.06113 h 1.245024 1.245024 l 0.003,1.335823 0.003,1.3358231 0.186302,0.032494 c 0.102466,0.017872 0.46401,0.079721 0.80343,0.1374438 0.805166,0.1369281 1.674676,0.2923849 1.684453,0.3011577 0.0043,0.00381 -0.04494,0.096012 -0.109323,0.2048827 -0.489675,0.8280711 -1.75894,2.9988985 -1.832495,3.1341245 -0.02496,0.045881 -0.04276,0.085962 -0.03956,0.089068 0.01201,0.011655 0.439587,0.3090742 1.263364,0.8787934 0.467503,0.323322 0.850727,0.5884552 0.851607,0.5891842 8.8e-4,7.29e-4 -0.135069,0.09564 -0.302111,0.210916 -0.444108,0.306479 -1.733115,1.205976 -1.778345,1.240967 l -0.03878,0.03 0.0449,0.08062 c 0.08946,0.160616 1.268564,2.177587 1.751778,2.996573 0.103636,0.17565 0.18943,0.324474 0.190651,0.330716 0.0012,0.0062 -0.07899,0.02633 -0.178259,0.04465 -0.345746,0.06378 -1.09306,0.195774 -1.734942,0.306432 -0.355431,0.06127 -0.673746,0.11689 -0.707368,0.123592 l -0.06113,0.01218 v 1.332402 1.332402 h -1.245676 -1.245678 l -0.0059,0.0262 c -0.0032,0.01441 -0.05604,0.322245 -0.117353,0.684079 -0.12896,0.761056 -0.304787,1.747216 -0.31298,1.755408 -0.0031,0.0031 -0.384436,-0.217057 -0.847434,-0.489219 -1.253089,-0.736594 -2.438934,-1.427535 -2.509155,-1.461974 -0.06157,-0.03019 -0.06215,-0.03025 -0.08431,-0.0076 -0.02373,0.02431 -0.321924,0.4511 -1.018651,1.457968 -0.235978,0.341021 -0.432795,0.620038 -0.437371,0.620038 -0.0046,0 -0.18858,-0.259386 -0.4088974,-0.576413 z M 6.7125137,18.872961 c 0.4699569,-0.27446 1.160993,-0.678344 1.5356358,-0.897522 0.3746428,-0.219178 0.6845402,-0.399391 0.6886608,-0.400475 0.00714,-0.0019 0.095877,0.124053 0.6714533,0.95283 0.4259154,0.613278 0.5855274,0.834111 0.5995074,0.829451 0.0074,-0.0025 0.109989,-0.142941 0.227992,-0.31217 0.118002,-0.16923 0.388413,-0.556579 0.600912,-0.860776 0.2125,-0.304197 0.395545,-0.568805 0.406767,-0.588017 0.06546,-0.112065 -0.106045,0.125259 -0.577054,0.79853 -0.618676,0.884351 -0.651596,0.93059 -0.662532,0.93059 -0.01078,0 -0.2748864,-0.371148 -0.7332814,-1.030486 -0.4932972,-0.709539 -0.5144933,-0.739388 -0.5250425,-0.739388 -0.011612,0 -0.344119,0.192388 -1.5299222,0.88521 -0.5187362,0.303078 -1.0793904,0.630599 -1.2458984,0.727823 -0.2046922,0.119521 -0.3053839,0.172328 -0.3109,0.163046 -0.00449,-0.0076 -0.076647,-0.416806 -0.1603561,-0.909458 -0.1848016,-1.087616 -0.1839343,-1.082783 -0.1927731,-1.073944 -0.00276,0.0028 0.055157,0.36099 0.1287003,0.79607 0.073544,0.435081 0.1502506,0.889302 0.17046,1.00938 0.020209,0.120077 0.040448,0.218323 0.044974,0.218323 0.00453,0 0.3927399,-0.224558 0.8626971,-0.499017 z m 7.8582793,0.48632 c 0,-0.007 0.07339,-0.445812 0.163085,-0.975177 0.181818,-1.073038 0.178763,-1.053938 0.163304,-1.020701 -0.006,0.01281 -0.08472,0.458019 -0.175026,0.989357 -0.09031,0.531337 -0.167033,0.968857 -0.170503,0.972266 -0.01258,0.01236 -0.274052,-0.135472 -1.331553,-0.752864 -1.330182,-0.776588 -1.641373,-0.955301 -1.612682,-0.926143 0.0112,0.01139 0.535217,0.319184 2.090082,1.227687 0.955408,0.558242 0.873293,0.512583 0.873293,0.485575 z m -2.997621,-1.740082 c -0.01243,-0.0094 -0.02815,-0.01691 -0.03493,-0.01668 -0.0068,2.27e-4 7.7e-4,0.0079 0.01678,0.01705 0.03772,0.02156 0.0469,0.02137 0.01815,-3.7e-4 z m -8.8603028,-2.91309 c -0.0025,-0.0025 -0.1400647,-0.02798 -0.3057097,-0.05663 C 1.0927018,14.422142 0.91248606,14.38936 0.91248606,14.37759 c 0,-0.01203 0.28868794,-0.514887 0.75920054,-1.322438 0.6957782,-1.194181 1.0106738,-1.741339 1.0106738,-1.756131 0,-0.01049 -0.1816686,-0.139846 -0.9839104,-0.700561 C 1.2693719,10.298568 0.91568806,10.050929 0.91248606,10.048158 0.90102326,10.038236 1.0234649,9.9502338 1.832355,9.3870258 2.2857486,9.071341 2.6100593,8.8418404 2.6574939,8.8031119 l 0.027531,-0.022478 -0.035603,-0.070528 C 2.6298408,8.6713144 2.3103491,8.1187916 1.9394409,7.4822764 1.1960035,6.2064646 0.91248606,5.7149977 0.91248606,5.7020884 c 0,-0.013044 0.19416294,-0.048763 1.26336424,-0.2324163 0.2625702,-0.045101 0.4918097,-0.085044 0.5094211,-0.088763 l 0.032021,-0.00676 -0.00285,-1.0091842 -0.00285,-1.0091839 -0.00304,1.0042872 c -0.00209,0.6897615 -0.00686,1.0042873 -0.01523,1.0042873 -0.025841,0 -1.77617224,0.3043196 -1.79628464,0.3123093 -0.019592,0.00778 -0.018013,0.014573 0.02009,0.086396 0.037219,0.070158 0.43910844,0.7600782 1.42125024,2.4398521 0.1845268,0.3155994 0.3334794,0.5757234 0.331006,0.5780536 -0.00247,0.00233 -0.274345,0.191575 -0.6041587,0.4205444 -1.0226285,0.7099479 -1.18796164,0.8270831 -1.18726414,0.8411531 2.927e-4,0.0059 1.65983104,1.168471 1.78461814,1.250189 0.00655,0.0043 -0.1322223,0.253769 -0.32062,0.576373 -0.1826975,0.312843 -0.56872,0.973744 -0.8578279,1.46867 -0.2891078,0.494926 -0.54425954,0.934942 -0.56700364,0.977815 -0.038087,0.07179 -0.039674,0.07861 -0.02009,0.08631 0.011694,0.0046 0.37494644,0.06925 0.80722664,0.143661 0.4322801,0.07441 0.8344317,0.14377 0.8936701,0.154125 l 0.1077061,0.01883 0.00285,1.147726 0.00285,1.147726 0.00303,-1.15172 c 0.00166,-0.633445 9.838e-4,-1.153761 -0.00151,-1.156257 z m 14.5904548,0.07817 c 0.0252,0 2.229223,-0.381815 2.234503,-0.387096 0.002,-0.002 -0.402076,-0.697717 -0.897888,-1.546099 -0.495811,-0.848381 -0.901539,-1.545132 -0.901617,-1.548334 -7.8e-5,-0.0032 0.181624,-0.131576 0.403783,-0.285276 0.721593,-0.499232 1.347721,-0.938132 1.370881,-0.960953 0.01245,-0.01227 0.02031,-0.02432 0.01747,-0.02678 -0.0028,-0.0025 -0.254064,-0.1773992 -0.558261,-0.3887642 C 18.332057,9.1961966 17.773245,8.8032902 17.752998,8.7837534 17.74213,8.7732658 17.943,8.4209771 18.640424,7.2273793 19.480511,5.7896214 19.540142,5.6840208 19.516121,5.6766259 19.501945,5.6722614 19.207398,5.6208628 18.861574,5.5624069 18.51575,5.5039509 18.023213,5.4184459 17.767047,5.3723958 l -0.465757,-0.083728 -0.0059,-1.1527472 -0.0059,-1.1527471 -0.0028,1.1614801 c -0.0016,0.638814 2.25e-4,1.16148 0.004,1.16148 0.0037,0 0.183191,0.031181 0.398803,0.069291 0.215613,0.03811 0.69855,0.1221801 1.073193,0.1868228 0.73802,0.1273418 0.733566,0.1264948 0.733566,0.1394945 0,0.013187 -0.279429,0.4982318 -0.964711,1.6745809 -0.748205,1.2843629 -0.805163,1.383173 -0.805163,1.3967733 0,0.017722 0.636904,0.4705866 1.592572,1.1323827 0.0971,0.06724 0.17672,0.1260182 0.176927,0.1306102 4.61e-4,0.01027 -0.378918,0.280952 -0.942781,0.672657 -0.233752,0.162383 -0.517991,0.360085 -0.631644,0.43934 l -0.206641,0.144096 0.02496,0.04895 c 0.01373,0.02692 0.335183,0.580783 0.714339,1.230804 1.01907,1.747088 1.049907,1.80092 1.038281,1.812545 -0.0084,0.0084 -0.228162,0.04753 -1.230397,0.218836 -0.50913,0.08702 -0.937481,0.160822 -0.95189,0.163994 l -0.0262,0.0058 0.0028,0.945846 0.0028,0.945846 0.003,-0.940246 c 0.0017,-0.517135 0.0065,-0.940246 0.01077,-0.940246 z M 5.5808803,2.3485809 C 5.7787741,1.1719108 5.8528356,0.74639845 5.8613008,0.73745275 c 0.00525,-0.00555 0.5981486,0.33300795 1.3175487,0.75235035 1.6454692,0.9591533 1.6864273,0.9827321 1.6864273,0.9708442 0,-0.00273 -0.019649,-0.016629 -0.043665,-0.030877 C 8.7103313,2.3637485 5.9755917,0.76506345 5.9170447,0.73180685 l -0.066364,-0.037697 -0.011549,0.044183 c -0.011458,0.043834 -0.3392701,1.97066095 -0.338591,1.99018155 1.947e-4,0.0056 0.00491,0.00232 0.010483,-0.00729 0.00557,-0.00961 0.037006,-0.1772785 0.069857,-0.3726051 z m 9.2989227,0.2095904 c -0.04287,-0.271942 -0.311923,-1.85678085 -0.316045,-1.86163215 -0.0045,-0.00525 0.09959,-0.065613 -1.665698,0.96634885 -0.775909,0.4535852 -1.415863,0.8261722 -1.422118,0.827971 -0.0063,0.0018 -0.291045,-0.3971498 -0.632866,-0.8865528 C 10.501255,1.1149033 10.215503,0.71245565 10.208071,0.70997835 10.200639,0.70750095 10.085685,0.86165295 9.9526176,1.0525381 9.8195506,1.2434234 9.5607526,1.6144324 9.3775117,1.8770026 8.9716802,2.4585268 8.9435042,2.5000521 8.9550832,2.4995702 8.9646632,2.4991715 9.1461945,2.2426993 9.8016476,1.30354 10.017304,0.99453965 10.197764,0.74172125 10.202671,0.74172125 c 0.01203,0 -0.0012,-0.01849 0.537901,0.75164335 0.445239,0.6360451 0.652158,0.9271855 0.706415,0.9939401 l 0.02284,0.028107 0.06879,-0.038971 c 0.03784,-0.021434 0.728235,-0.42364 1.53422,-0.8937906 0.805984,-0.4701507 1.469594,-0.85038405 1.474687,-0.84496285 0.008,0.00846 0.116663,0.63575715 0.292286,1.68657965 0.04721,0.2824698 0.0539,0.3155939 0.06208,0.3073193 0.0025,-0.00252 -0.0075,-0.080554 -0.02209,-0.1734143 z"
     id="path6"
     inkscape:export-filename="Special_stress_black.svg"
     inkscape:export-xdpi="96"
     inkscape:export-ydpi="96" />
</svg>
